<?xml version="1.0" encoding="UTF-8"?>
<svg version="1.2" baseProfile="tiny" viewBox="0 0 9000 11000" preserveAspectRatio="xMidYMid" fill-rule="evenodd" stroke-width="28.222" stroke-linejoin="round" xmlns="http://www.w3.org/2000/svg" xmlns:ooo="http://xml.openoffice.org/svg/export" xmlns:xlink="http://www.w3.org/1999/xlink" xml:space="preserve">
 <defs class="ClipPathGroup">
  <clipPath id="presentation_clip_path" clipPathUnits="userSpaceOnUse">
   <rect x="0" y="0" width="9000" height="11000"/>
  </clipPath>
 </defs>
 <defs class="TextShapeIndex">
  <g ooo:slide="id1" ooo:id-list="id3 id4 id5 id6 id7 id8 id9 id10 id11 id12 id13 id14 id15 id16 id17 id18 id19 id20 id21 id22 id23 id24 id25 id26 id27 id28 id29 id30 id31 id32 id33 id34 id35 id36 id37 id38 id39 id40 id41 id42 id43 id44 id45 id46 id47 id48"/>
 </defs>
 <defs class="EmbeddedBulletChars">
  <g id="bullet-char-template(57356)" transform="scale(0.00048828125,-0.00048828125)">
   <path d="M 580,1141 L 1163,571 580,0 -4,571 580,1141 Z"/>
  </g>
  <g id="bullet-char-template(57354)" transform="scale(0.00048828125,-0.00048828125)">
   <path d="M 8,1128 L 1137,1128 1137,0 8,0 8,1128 Z"/>
  </g>
  <g id="bullet-char-template(10146)" transform="scale(0.00048828125,-0.00048828125)">
   <path d="M 174,0 L 602,739 174,1481 1456,739 174,0 Z M 1358,739 L 309,1346 659,739 1358,739 Z"/>
  </g>
  <g id="bullet-char-template(10132)" transform="scale(0.00048828125,-0.00048828125)">
   <path d="M 2015,739 L 1276,0 717,0 1260,543 174,543 174,936 1260,936 717,1481 1274,1481 2015,739 Z"/>
  </g>
  <g id="bullet-char-template(10007)" transform="scale(0.00048828125,-0.00048828125)">
   <path d="M 0,-2 C -7,14 -16,27 -25,37 L 356,567 C 262,823 215,952 215,954 215,979 228,992 255,992 264,992 276,990 289,987 310,991 331,999 354,1012 L 381,999 492,748 772,1049 836,1024 860,1049 C 881,1039 901,1025 922,1006 886,937 835,863 770,784 769,783 710,716 594,584 L 774,223 C 774,196 753,168 711,139 L 727,119 C 717,90 699,76 672,76 641,76 570,178 457,381 L 164,-76 C 142,-110 111,-127 72,-127 30,-127 9,-110 8,-76 1,-67 -2,-52 -2,-32 -2,-23 -1,-13 0,-2 Z"/>
  </g>
  <g id="bullet-char-template(10004)" transform="scale(0.00048828125,-0.00048828125)">
   <path d="M 285,-33 C 182,-33 111,30 74,156 52,228 41,333 41,471 41,549 55,616 82,672 116,743 169,778 240,778 293,778 328,747 346,684 L 369,508 C 377,444 397,411 428,410 L 1163,1116 C 1174,1127 1196,1133 1229,1133 1271,1133 1292,1118 1292,1087 L 1292,965 C 1292,929 1282,901 1262,881 L 442,47 C 390,-6 338,-33 285,-33 Z"/>
  </g>
  <g id="bullet-char-template(9679)" transform="scale(0.00048828125,-0.00048828125)">
   <path d="M 813,0 C 632,0 489,54 383,161 276,268 223,411 223,592 223,773 276,916 383,1023 489,1130 632,1184 813,1184 992,1184 1136,1130 1245,1023 1353,916 1407,772 1407,592 1407,412 1353,268 1245,161 1136,54 992,0 813,0 Z"/>
  </g>
  <g id="bullet-char-template(8226)" transform="scale(0.00048828125,-0.00048828125)">
   <path d="M 346,457 C 273,457 209,483 155,535 101,586 74,649 74,723 74,796 101,859 155,911 209,963 273,989 346,989 419,989 480,963 531,910 582,859 608,796 608,723 608,648 583,586 532,535 482,483 420,457 346,457 Z"/>
  </g>
  <g id="bullet-char-template(8211)" transform="scale(0.00048828125,-0.00048828125)">
   <path d="M -4,459 L 1135,459 1135,606 -4,606 -4,459 Z"/>
  </g>
 </defs>
 <defs class="TextEmbeddedBitmaps"/>
 <g>
  <g id="id2" class="Master_Slide">
   <g id="bg-id2" class="Background">
    <path fill="rgb(255,255,255)" stroke="none" d="M 4500,10999 L 0,10999 0,0 8999,0 8999,10999 4500,10999 Z"/>
   </g>
   <g id="bo-id2" class="BackgroundObjects"/>
  </g>
 </g>
 <g class="SlideGroup">
  <g>
   <g id="id1" class="Slide" clip-path="url(#presentation_clip_path)">
    <g class="Page">
     <g class="Group">
      <g class="com.sun.star.drawing.ClosedBezierShape">
       <g id="id3">
        <path fill="none" stroke="rgb(0,0,0)" stroke-width="50" stroke-linejoin="round" d="M 400,10600 C 400,7200 400,3800 400,400 3133,400 5867,400 8600,400 8600,3800 8600,7200 8600,10600 5867,10600 3133,10600 400,10600 Z"/>
       </g>
      </g>
      <g class="com.sun.star.drawing.ClosedBezierShape">
       <g id="id4">
        <path fill="rgb(0,0,0)" stroke="none" d="M 1228,1088 C 1220,1040 1199,1003 1165,979 1131,954 1090,941 1041,941 995,942 955,953 924,974 892,995 868,1024 852,1060 835,1095 827,1135 827,1180 827,1247 844,1303 879,1347 913,1391 966,1414 1036,1416 1094,1415 1139,1399 1173,1367 1206,1336 1226,1291 1232,1234 L 1172,1234 C 1169,1273 1156,1304 1134,1328 1112,1352 1081,1364 1041,1365 987,1364 948,1345 923,1309 899,1273 887,1228 887,1175 887,1143 892,1113 903,1086 913,1058 930,1036 953,1018 975,1001 1005,992 1041,992 1073,992 1100,1000 1123,1016 1146,1032 1161,1056 1168,1088 L 1228,1088 Z"/>
       </g>
      </g>
      <g class="com.sun.star.drawing.ClosedBezierShape">
       <g id="id5">
        <path fill="rgb(0,0,0)" stroke="none" d="M 1280,1241 C 1280,1290 1294,1331 1321,1363 1348,1395 1387,1412 1440,1413 1492,1412 1531,1395 1558,1363 1585,1331 1599,1290 1599,1241 1599,1192 1585,1151 1558,1119 1531,1087 1492,1070 1440,1069 1387,1070 1348,1087 1321,1119 1294,1151 1280,1192 1280,1241 Z M 1337,1241 C 1338,1201 1348,1170 1367,1149 1386,1128 1410,1117 1440,1117 1469,1117 1493,1128 1512,1149 1531,1170 1541,1201 1542,1241 1541,1281 1531,1312 1512,1333 1493,1354 1469,1365 1440,1365 1410,1365 1386,1354 1367,1333 1348,1312 1338,1281 1337,1241 Z"/>
       </g>
      </g>
      <g class="com.sun.star.drawing.ClosedBezierShape">
       <g id="id6">
        <path fill="rgb(0,0,0)" stroke="none" d="M 1955,952 L 1901,952 1901,1121 1900,1121 C 1887,1102 1870,1088 1850,1080 1830,1073 1811,1069 1794,1069 1744,1070 1706,1087 1681,1120 1656,1152 1644,1192 1644,1240 1644,1288 1657,1328 1682,1361 1707,1394 1745,1411 1795,1413 1818,1413 1839,1409 1858,1400 1876,1392 1890,1379 1900,1361 L 1901,1361 1901,1405 1955,1405 1955,952 Z M 1701,1244 C 1700,1211 1708,1181 1723,1156 1737,1131 1763,1118 1799,1117 1836,1118 1863,1131 1879,1155 1895,1179 1903,1208 1903,1241 1903,1273 1896,1302 1880,1326 1864,1351 1838,1364 1803,1365 1768,1364 1742,1351 1726,1328 1709,1304 1701,1276 1701,1244 Z"/>
       </g>
      </g>
      <g class="com.sun.star.drawing.ClosedBezierShape">
       <g id="id7">
        <path fill="rgb(0,0,0)" stroke="none" d="M 2266,1301 C 2261,1322 2251,1338 2236,1349 2222,1360 2203,1365 2180,1365 2145,1364 2118,1353 2102,1333 2085,1312 2077,1286 2078,1257 L 2324,1257 C 2325,1230 2322,1202 2313,1173 2304,1144 2288,1120 2266,1100 2244,1080 2214,1070 2175,1069 2130,1070 2093,1086 2065,1118 2036,1149 2022,1190 2021,1240 2022,1291 2036,1332 2062,1364 2087,1396 2126,1412 2179,1413 2216,1413 2247,1403 2271,1384 2295,1365 2311,1337 2319,1301 L 2266,1301 Z M 2078,1209 C 2080,1183 2089,1162 2105,1144 2121,1127 2144,1118 2172,1117 2199,1117 2222,1126 2239,1144 2256,1161 2265,1183 2267,1209 L 2078,1209 Z"/>
       </g>
      </g>
      <g class="com.sun.star.drawing.ClosedBezierShape">
       <g id="id8">
        <path fill="rgb(0,0,0)" stroke="none" d="M 2494,1405 C 2514,1405 2534,1405 2554,1405 2554,1271 2554,1137 2554,1003 2604,1003 2655,1003 2705,1003 2705,986 2705,969 2705,952 2584,952 2464,952 2343,952 2343,969 2343,986 2343,1003 2393,1003 2444,1003 2494,1003 2494,1137 2494,1271 2494,1405 Z"/>
       </g>
      </g>
      <g class="com.sun.star.drawing.ClosedBezierShape">
       <g id="id9">
        <path fill="rgb(0,0,0)" stroke="none" d="M 2685,1405 L 2739,1405 2739,1259 C 2738,1217 2747,1184 2766,1161 2784,1138 2815,1126 2858,1126 L 2858,1069 C 2829,1068 2805,1074 2785,1087 2766,1100 2750,1119 2737,1146 L 2736,1146 2736,1077 2685,1077 2685,1405 Z"/>
       </g>
      </g>
      <g class="com.sun.star.drawing.ClosedBezierShape">
       <g id="id10">
        <path fill="rgb(0,0,0)" stroke="none" d="M 3113,1301 C 3108,1322 3098,1338 3083,1349 3069,1360 3050,1365 3027,1365 2992,1364 2965,1353 2949,1333 2932,1312 2924,1286 2925,1257 L 3171,1257 C 3172,1230 3169,1202 3160,1173 3151,1144 3135,1120 3113,1100 3091,1080 3061,1070 3022,1069 2977,1070 2940,1086 2912,1118 2883,1149 2869,1190 2868,1240 2869,1291 2883,1332 2909,1364 2934,1396 2973,1412 3026,1413 3063,1413 3094,1403 3118,1384 3142,1365 3158,1337 3166,1301 L 3113,1301 Z M 2925,1209 C 2927,1183 2936,1162 2952,1144 2968,1127 2991,1118 3019,1117 3046,1117 3069,1126 3086,1144 3103,1161 3112,1183 3114,1209 L 2925,1209 Z"/>
       </g>
      </g>
      <g class="com.sun.star.drawing.ClosedBezierShape">
       <g id="id11">
        <path fill="rgb(0,0,0)" stroke="none" d="M 3456,1301 C 3451,1322 3441,1338 3426,1349 3412,1360 3393,1365 3370,1365 3335,1364 3308,1353 3292,1333 3275,1312 3267,1286 3268,1257 L 3514,1257 C 3515,1230 3512,1202 3503,1173 3494,1144 3478,1120 3456,1100 3434,1080 3404,1070 3365,1069 3320,1070 3283,1086 3255,1118 3226,1149 3212,1190 3211,1240 3212,1291 3226,1332 3252,1364 3277,1396 3316,1412 3369,1413 3406,1413 3437,1403 3461,1384 3485,1365 3501,1337 3509,1301 L 3456,1301 Z M 3268,1209 C 3270,1183 3279,1162 3295,1144 3311,1127 3334,1118 3362,1117 3389,1117 3412,1126 3429,1144 3446,1161 3455,1183 3457,1209 L 3268,1209 Z"/>
       </g>
      </g>
     </g>
     <g class="com.sun.star.drawing.CustomShape">
      <g id="id12">
       <path fill="none" stroke="rgb(0,0,0)" stroke-width="50" stroke-linejoin="round" d="M 3300,3000 C 3583,3000 3800,3217 3800,3500 3800,3783 3583,4000 3300,4000 3017,4000 2800,3783 2800,3500 2800,3217 3017,3000 3300,3000 Z"/>
      </g>
     </g>
     <g class="Group">
      <g class="com.sun.star.drawing.ClosedBezierShape">
       <g id="id13">
        <path fill="rgb(0,0,0)" stroke="none" d="M 2982,2587 L 2982,2499 3065,2499 C 3081,2499 3092,2503 3100,2511 3107,2519 3110,2529 3110,2542 3110,2560 3104,2572 3093,2578 3082,2585 3068,2587 3052,2587 L 2982,2587 Z M 2948,2723 L 2982,2723 2982,2615 3064,2615 C 3080,2615 3090,2620 3096,2628 3101,2637 3105,2648 3106,2661 3108,2673 3109,2686 3109,2697 3109,2709 3111,2717 3115,2723 L 3153,2723 C 3146,2714 3142,2703 3141,2691 3140,2678 3139,2666 3138,2653 3137,2641 3134,2629 3129,2620 3124,2611 3114,2604 3100,2601 L 3100,2601 C 3115,2596 3126,2588 3133,2577 3140,2566 3144,2552 3144,2537 3144,2516 3137,2500 3123,2489 3110,2477 3091,2471 3067,2471 L 2948,2471 2948,2723 Z"/>
       </g>
      </g>
      <g class="com.sun.star.drawing.ClosedBezierShape">
       <g id="id14">
        <path fill="rgb(0,0,0)" stroke="none" d="M 3175,2632 C 3175,2659 3183,2682 3198,2700 3213,2717 3235,2726 3264,2727 3292,2726 3314,2717 3329,2700 3344,2682 3352,2659 3352,2632 3352,2605 3344,2582 3329,2564 3314,2547 3292,2538 3264,2537 3235,2538 3213,2547 3198,2564 3183,2582 3175,2605 3175,2632 Z M 3207,2632 C 3207,2610 3213,2593 3223,2581 3234,2569 3247,2563 3264,2563 3280,2563 3293,2569 3304,2581 3314,2593 3320,2610 3320,2632 3320,2654 3314,2671 3304,2683 3293,2695 3280,2701 3264,2701 3247,2701 3234,2695 3223,2683 3213,2671 3207,2654 3207,2632 Z"/>
       </g>
      </g>
      <g class="com.sun.star.drawing.ClosedBezierShape">
       <g id="id15">
        <path fill="rgb(0,0,0)" stroke="none" d="M 3379,2632 C 3379,2659 3387,2682 3402,2700 3417,2717 3439,2726 3468,2727 3496,2726 3518,2717 3533,2700 3548,2682 3556,2659 3556,2632 3556,2605 3548,2582 3533,2564 3518,2547 3496,2538 3468,2537 3439,2538 3417,2547 3402,2564 3387,2582 3379,2605 3379,2632 Z M 3411,2632 C 3411,2610 3417,2593 3427,2581 3438,2569 3451,2563 3468,2563 3484,2563 3497,2569 3508,2581 3518,2593 3524,2610 3524,2632 3524,2654 3518,2671 3508,2683 3497,2695 3484,2701 3468,2701 3451,2701 3438,2695 3427,2683 3417,2671 3411,2654 3411,2632 Z"/>
       </g>
      </g>
      <g class="com.sun.star.drawing.ClosedBezierShape">
       <g id="id16">
        <path fill="rgb(0,0,0)" stroke="none" d="M 3633,2486 L 3603,2486 3603,2541 3572,2541 3572,2567 3603,2567 3603,2684 C 3603,2700 3606,2710 3613,2716 3620,2721 3631,2723 3646,2723 L 3669,2723 3669,2697 3656,2697 C 3646,2697 3640,2696 3637,2694 3634,2692 3633,2687 3633,2681 L 3633,2567 3669,2567 3669,2541 3633,2541 3633,2486 Z"/>
       </g>
      </g>
     </g>
     <g class="com.sun.star.drawing.CustomShape">
      <g id="id17">
       <path fill="none" stroke="rgb(0,0,0)" stroke-width="50" stroke-linejoin="round" d="M 4900,5800 C 5183,5800 5400,6017 5400,6300 5400,6583 5183,6800 4900,6800 4617,6800 4400,6583 4400,6300 4400,6017 4617,5800 4900,5800 Z"/>
      </g>
     </g>
     <g class="Group">
      <g class="com.sun.star.drawing.ClosedBezierShape">
       <g id="id18">
        <path fill="rgb(0,0,0)" stroke="none" d="M 4252,3734 C 4272,3734 4292,3734 4312,3734 4312,3583 4312,3433 4312,3282 4292,3282 4272,3282 4252,3282 4252,3433 4252,3583 4252,3734 Z"/>
       </g>
      </g>
      <g class="com.sun.star.drawing.ClosedBezierShape">
       <g id="id19">
        <path fill="rgb(0,0,0)" stroke="none" d="M 4406,3734 L 4460,3734 4460,3549 C 4460,3519 4468,3495 4484,3476 4500,3457 4524,3447 4557,3446 4577,3447 4594,3453 4605,3464 4617,3476 4623,3492 4623,3512 L 4623,3734 4677,3734 4677,3519 C 4678,3483 4670,3454 4653,3432 4636,3410 4607,3399 4564,3399 4541,3399 4520,3403 4502,3413 4484,3423 4470,3438 4458,3458 L 4457,3458 4457,3407 4406,3407 4406,3734 Z"/>
       </g>
      </g>
      <g class="com.sun.star.drawing.ClosedBezierShape">
       <g id="id20">
        <path fill="rgb(0,0,0)" stroke="none" d="M 4832,3308 L 4778,3308 4778,3407 4722,3407 4722,3454 4778,3454 4778,3663 C 4778,3692 4784,3711 4796,3721 4808,3731 4828,3735 4856,3734 L 4897,3734 4897,3687 4873,3687 C 4856,3687 4845,3685 4840,3681 4834,3677 4832,3670 4832,3658 L 4832,3454 4897,3454 4897,3407 4832,3407 4832,3308 Z"/>
       </g>
      </g>
      <g class="com.sun.star.drawing.ClosedBezierShape">
       <g id="id21">
        <path fill="rgb(0,0,0)" stroke="none" d="M 5183,3630 C 5178,3652 5168,3668 5153,3678 5139,3689 5120,3695 5097,3695 5062,3694 5035,3683 5019,3662 5002,3641 4994,3616 4995,3586 L 5241,3586 C 5242,3559 5239,3531 5230,3502 5221,3474 5205,3450 5183,3430 5161,3410 5131,3400 5092,3399 5047,3400 5010,3416 4982,3447 4953,3478 4939,3519 4938,3569 4939,3620 4953,3662 4979,3693 5004,3725 5043,3741 5096,3742 5133,3742 5164,3733 5188,3714 5212,3694 5228,3667 5236,3630 L 5183,3630 Z M 4995,3539 C 4997,3513 5006,3491 5022,3474 5038,3456 5061,3447 5089,3446 5116,3447 5139,3456 5156,3473 5173,3491 5182,3512 5184,3539 L 4995,3539 Z"/>
       </g>
      </g>
      <g class="com.sun.star.drawing.ClosedBezierShape">
       <g id="id22">
        <path fill="rgb(0,0,0)" stroke="none" d="M 5297,3734 L 5351,3734 5351,3589 C 5350,3546 5359,3514 5378,3491 5396,3468 5427,3456 5470,3455 L 5470,3399 C 5441,3398 5417,3404 5397,3416 5378,3429 5362,3449 5349,3475 L 5348,3475 5348,3407 5297,3407 5297,3734 Z"/>
       </g>
      </g>
      <g class="com.sun.star.drawing.ClosedBezierShape">
       <g id="id23">
        <path fill="rgb(0,0,0)" stroke="none" d="M 5524,3734 L 5578,3734 5578,3549 C 5578,3519 5586,3495 5602,3476 5618,3457 5642,3447 5675,3446 5695,3447 5712,3453 5723,3464 5735,3476 5741,3492 5741,3512 L 5741,3734 5795,3734 5795,3519 C 5796,3483 5788,3454 5771,3432 5754,3410 5725,3399 5682,3399 5659,3399 5638,3403 5620,3413 5602,3423 5588,3438 5576,3458 L 5575,3458 5575,3407 5524,3407 5524,3734 Z"/>
       </g>
      </g>
      <g class="com.sun.star.drawing.ClosedBezierShape">
       <g id="id24">
        <path fill="rgb(0,0,0)" stroke="none" d="M 6078,3620 C 6078,3637 6070,3653 6055,3669 6039,3685 6013,3693 5978,3695 5960,3695 5946,3691 5933,3684 5921,3676 5915,3664 5914,3646 5914,3627 5921,3613 5934,3604 5946,3596 5962,3590 5980,3587 5999,3585 6017,3582 6035,3580 6053,3577 6067,3572 6078,3565 L 6078,3620 Z M 6166,3691 C 6162,3693 6159,3694 6156,3694 6154,3694 6151,3695 6149,3695 6141,3695 6136,3692 6134,3686 6132,3680 6132,3670 6132,3658 L 6132,3489 C 6131,3451 6117,3427 6093,3415 6068,3403 6040,3398 6009,3399 5971,3398 5940,3406 5913,3423 5887,3440 5873,3468 5870,3509 L 5924,3509 C 5926,3485 5934,3468 5949,3459 5964,3450 5983,3446 6006,3446 6024,3446 6040,3449 6055,3456 6070,3463 6078,3478 6079,3501 6078,3520 6067,3532 6046,3536 6025,3540 5999,3545 5968,3549 5939,3554 5913,3562 5892,3576 5870,3589 5858,3614 5857,3650 5858,3683 5868,3706 5889,3721 5909,3735 5935,3743 5965,3742 5988,3742 6010,3738 6029,3730 6049,3722 6066,3709 6081,3691 6081,3709 6086,3722 6094,3730 6102,3738 6113,3742 6127,3742 6135,3742 6143,3742 6149,3740 6155,3739 6161,3736 6166,3733 L 6166,3691 Z"/>
       </g>
      </g>
      <g class="com.sun.star.drawing.ClosedBezierShape">
       <g id="id25">
        <path fill="rgb(0,0,0)" stroke="none" d="M 6221,3734 C 6239,3734 6257,3734 6275,3734 6275,3583 6275,3433 6275,3282 6257,3282 6239,3282 6221,3282 6221,3433 6221,3583 6221,3734 Z"/>
       </g>
      </g>
      <g class="com.sun.star.drawing.ClosedBezierShape">
       <g id="id26">
        <path fill="rgb(0,0,0)" stroke="none" d="M 6366,3734 C 6385,3734 6404,3734 6423,3734 6423,3613 6423,3492 6423,3371 6423,3371 6424,3371 6424,3371 6503,3492 6582,3613 6661,3734 6683,3734 6705,3734 6727,3734 6727,3583 6727,3433 6727,3282 6708,3282 6689,3282 6670,3282 6670,3404 6670,3526 6670,3649 6670,3649 6669,3649 6669,3649 6589,3526 6510,3404 6430,3282 6409,3282 6387,3282 6366,3282 6366,3433 6366,3583 6366,3734 Z"/>
       </g>
      </g>
      <g class="com.sun.star.drawing.ClosedBezierShape">
       <g id="id27">
        <path fill="rgb(0,0,0)" stroke="none" d="M 6797,3571 C 6797,3620 6811,3660 6838,3693 6865,3725 6904,3741 6957,3742 7009,3741 7048,3725 7075,3693 7102,3660 7116,3620 7116,3571 7116,3521 7102,3481 7075,3449 7048,3416 7009,3400 6957,3399 6904,3400 6865,3416 6838,3449 6811,3481 6797,3521 6797,3571 Z M 6854,3571 C 6855,3531 6865,3500 6884,3479 6903,3457 6927,3447 6957,3446 6986,3447 7010,3457 7029,3479 7048,3500 7058,3531 7059,3571 7058,3611 7048,3641 7029,3663 7010,3684 6986,3694 6957,3695 6927,3694 6903,3684 6884,3663 6865,3641 6855,3611 6854,3571 Z"/>
       </g>
      </g>
      <g class="com.sun.star.drawing.ClosedBezierShape">
       <g id="id28">
        <path fill="rgb(0,0,0)" stroke="none" d="M 7472,3282 L 7418,3282 7418,3450 7417,3450 C 7404,3431 7387,3418 7367,3410 7347,3402 7328,3398 7311,3399 7261,3400 7223,3417 7198,3449 7173,3482 7161,3522 7161,3570 7161,3617 7174,3658 7199,3691 7224,3724 7262,3741 7312,3742 7335,3742 7356,3738 7375,3730 7393,3721 7407,3708 7417,3690 L 7418,3690 7418,3734 7472,3734 7472,3282 Z M 7218,3573 C 7217,3540 7225,3511 7240,3486 7254,3461 7280,3448 7316,3446 7353,3447 7380,3460 7396,3484 7412,3508 7420,3537 7420,3571 7420,3603 7413,3631 7397,3656 7381,3680 7355,3693 7320,3695 7285,3693 7259,3681 7243,3657 7226,3633 7218,3605 7218,3573 Z"/>
       </g>
      </g>
      <g class="com.sun.star.drawing.ClosedBezierShape">
       <g id="id29">
        <path fill="rgb(0,0,0)" stroke="none" d="M 7783,3630 C 7778,3652 7768,3668 7753,3678 7739,3689 7720,3695 7697,3695 7662,3694 7635,3683 7619,3662 7602,3641 7594,3616 7595,3586 L 7841,3586 C 7842,3559 7839,3531 7830,3502 7821,3474 7805,3450 7783,3430 7761,3410 7731,3400 7692,3399 7647,3400 7610,3416 7582,3447 7553,3478 7539,3519 7538,3569 7539,3620 7553,3662 7579,3693 7604,3725 7643,3741 7696,3742 7733,3742 7764,3733 7788,3714 7812,3694 7828,3667 7836,3630 L 7783,3630 Z M 7595,3539 C 7597,3513 7606,3491 7622,3474 7638,3456 7661,3447 7689,3446 7716,3447 7739,3456 7756,3473 7773,3491 7782,3512 7784,3539 L 7595,3539 Z"/>
       </g>
      </g>
     </g>
     <g class="Group">
      <g class="com.sun.star.drawing.ClosedBezierShape">
       <g id="id30">
        <path fill="rgb(0,0,0)" stroke="none" d="M 1227,9334 C 1327,9334 1427,9334 1527,9334 1527,9317 1527,9301 1527,9284 1447,9284 1367,9284 1287,9284 1287,9150 1287,9016 1287,8882 1267,8882 1247,8882 1227,8882 1227,9033 1227,9183 1227,9334 Z"/>
       </g>
      </g>
      <g class="com.sun.star.drawing.ClosedBezierShape">
       <g id="id31">
        <path fill="rgb(0,0,0)" stroke="none" d="M 1796,9230 C 1791,9252 1781,9268 1766,9278 1752,9289 1733,9295 1710,9295 1675,9294 1648,9283 1632,9262 1615,9241 1607,9216 1608,9186 L 1854,9186 C 1855,9159 1852,9131 1843,9102 1834,9074 1818,9050 1796,9030 1774,9010 1744,9000 1705,8999 1660,9000 1623,9016 1595,9047 1566,9078 1552,9119 1551,9169 1552,9220 1566,9262 1592,9293 1617,9325 1656,9341 1709,9342 1746,9342 1777,9333 1801,9314 1825,9294 1841,9267 1849,9230 L 1796,9230 Z M 1608,9139 C 1610,9113 1619,9091 1635,9074 1651,9056 1674,9047 1702,9046 1729,9047 1752,9056 1769,9073 1786,9091 1795,9112 1797,9139 L 1608,9139 Z"/>
       </g>
      </g>
      <g class="com.sun.star.drawing.ClosedBezierShape">
       <g id="id32">
        <path fill="rgb(0,0,0)" stroke="none" d="M 2115,9220 C 2115,9237 2107,9253 2092,9269 2076,9285 2050,9293 2015,9295 1997,9295 1983,9291 1970,9284 1958,9276 1952,9264 1951,9246 1951,9227 1958,9213 1971,9204 1983,9196 1999,9190 2017,9187 2036,9185 2054,9182 2072,9180 2090,9177 2104,9172 2115,9165 L 2115,9220 Z M 2203,9291 C 2199,9293 2196,9294 2193,9294 2191,9294 2188,9295 2186,9295 2178,9295 2173,9292 2171,9286 2169,9280 2169,9270 2169,9258 L 2169,9089 C 2168,9051 2154,9027 2130,9015 2105,9003 2077,8998 2046,8999 2008,8998 1977,9006 1950,9023 1924,9040 1910,9068 1907,9109 L 1961,9109 C 1963,9085 1971,9068 1986,9059 2001,9050 2020,9046 2043,9046 2061,9046 2077,9049 2092,9056 2107,9063 2115,9078 2116,9101 2115,9120 2104,9132 2083,9136 2062,9140 2036,9145 2005,9149 1976,9154 1950,9162 1929,9176 1907,9189 1895,9214 1894,9250 1895,9283 1905,9306 1926,9321 1946,9335 1972,9343 2002,9342 2025,9342 2047,9338 2066,9330 2086,9322 2103,9309 2118,9291 2118,9309 2123,9322 2131,9330 2139,9338 2150,9342 2164,9342 2172,9342 2180,9342 2186,9340 2192,9339 2198,9336 2203,9333 L 2203,9291 Z"/>
       </g>
      </g>
      <g class="com.sun.star.drawing.ClosedBezierShape">
       <g id="id33">
        <path fill="rgb(0,0,0)" stroke="none" d="M 2277,9334 L 2331,9334 2331,9054 2394,9054 2394,9007 2331,9007 2331,8961 C 2331,8947 2335,8937 2342,8932 2349,8927 2359,8924 2372,8924 2377,8924 2382,8925 2387,8925 2393,8926 2398,8927 2403,8929 L 2403,8882 C 2397,8880 2392,8879 2385,8878 2379,8877 2373,8877 2368,8877 2338,8877 2316,8884 2300,8897 2285,8911 2277,8931 2277,8958 L 2277,9007 2222,9007 2222,9054 2277,9054 2277,9334 Z"/>
       </g>
      </g>
     </g>
     <g class="Group">
      <g class="com.sun.star.drawing.ClosedBezierShape">
       <g id="id34">
        <path fill="none" stroke="rgb(0,0,0)" stroke-width="50" stroke-linejoin="round" d="M 6000,9600 C 6000,9267 6000,8933 6000,8600 6333,8600 6667,8600 7000,8600 7000,8933 7000,9267 7000,9600 6667,9600 6333,9600 6000,9600 Z"/>
       </g>
      </g>
      <g class="com.sun.star.drawing.ClosedBezierShape">
       <g id="id35">
        <path fill="rgb(0,0,0)" stroke="none" d="M 6609,9168 C 6609,9201 6602,9230 6587,9255 6572,9280 6546,9293 6510,9295 6473,9294 6447,9281 6430,9257 6414,9233 6406,9204 6407,9170 6406,9138 6414,9110 6430,9085 6445,9061 6471,9048 6507,9046 6542,9048 6567,9060 6584,9084 6600,9108 6609,9136 6609,9168 Z M 6355,9334 L 6408,9334 6408,9291 6410,9291 C 6423,9310 6439,9323 6459,9331 6479,9339 6498,9343 6516,9342 6566,9341 6603,9324 6628,9292 6653,9259 6665,9219 6665,9171 6665,9124 6653,9083 6628,9050 6603,9017 6565,9000 6515,8999 6492,8999 6471,9003 6452,9011 6433,9020 6419,9033 6410,9051 L 6408,9051 6408,8882 6355,8882 6355,9334 Z"/>
       </g>
      </g>
     </g>
     <g class="Group">
      <g class="com.sun.star.drawing.ClosedBezierShape">
       <g id="id36">
        <path fill="none" stroke="rgb(0,0,0)" stroke-width="50" stroke-linejoin="round" d="M 1200,6800 C 1200,6467 1200,6133 1200,5800 1533,5800 1867,5800 2200,5800 2200,6133 2200,6467 2200,6800 1867,6800 1533,6800 1200,6800 Z"/>
       </g>
      </g>
      <g class="com.sun.star.drawing.ClosedBezierShape">
       <g id="id37">
        <path fill="rgb(0,0,0)" stroke="none" d="M 1848,6312 C 1843,6273 1828,6244 1802,6226 1776,6208 1744,6198 1706,6199 1654,6200 1615,6217 1590,6250 1564,6283 1552,6324 1552,6375 1552,6424 1565,6465 1591,6495 1617,6526 1655,6541 1705,6542 1746,6542 1779,6531 1804,6508 1828,6486 1844,6455 1850,6415 L 1794,6415 C 1791,6440 1782,6459 1766,6473 1751,6487 1730,6494 1704,6495 1670,6493 1646,6481 1631,6457 1616,6434 1608,6406 1608,6375 1608,6340 1615,6310 1630,6285 1645,6261 1672,6248 1711,6246 1733,6246 1751,6252 1765,6264 1779,6275 1788,6291 1792,6312 L 1848,6312 Z"/>
       </g>
      </g>
     </g>
     <g class="Group">
      <g class="com.sun.star.drawing.ClosedBezierShape">
       <g id="id38">
        <path fill="none" stroke="rgb(0,0,0)" stroke-width="50" stroke-linejoin="round" d="M 2800,9600 C 2800,9267 2800,8933 2800,8600 3133,8600 3467,8600 3800,8600 3800,8933 3800,9267 3800,9600 3467,9600 3133,9600 2800,9600 Z"/>
       </g>
      </g>
      <g class="com.sun.star.drawing.ClosedBezierShape">
       <g id="id39">
        <path fill="rgb(0,0,0)" stroke="none" d="M 3373,9220 C 3373,9237 3365,9253 3349,9269 3333,9285 3307,9293 3272,9295 3255,9295 3240,9291 3228,9284 3215,9276 3209,9264 3208,9246 3209,9227 3216,9213 3228,9204 3241,9196 3256,9190 3275,9187 3293,9185 3311,9182 3329,9180 3347,9177 3362,9172 3373,9165 L 3373,9220 Z M 3460,9291 C 3457,9293 3454,9294 3451,9294 3448,9294 3446,9295 3444,9295 3435,9295 3430,9292 3429,9286 3427,9280 3426,9270 3426,9258 L 3426,9089 C 3425,9051 3412,9027 3387,9015 3362,9003 3334,8998 3303,8999 3266,8998 3234,9006 3208,9023 3182,9040 3167,9068 3165,9109 L 3218,9109 C 3220,9085 3228,9068 3243,9059 3258,9050 3277,9046 3300,9046 3318,9046 3335,9049 3350,9056 3364,9063 3372,9078 3373,9101 3372,9120 3361,9132 3340,9136 3319,9140 3294,9145 3263,9149 3234,9154 3208,9162 3186,9176 3164,9189 3153,9214 3152,9250 3152,9283 3163,9306 3183,9321 3204,9335 3229,9343 3260,9342 3283,9342 3304,9338 3324,9330 3343,9322 3361,9309 3376,9291 3376,9309 3380,9322 3388,9330 3396,9338 3407,9342 3421,9342 3430,9342 3437,9342 3444,9340 3450,9339 3455,9336 3460,9333 L 3460,9291 Z"/>
       </g>
      </g>
     </g>
     <g class="com.sun.star.drawing.LineShape">
      <g id="id40">
       <path fill="none" stroke="rgb(0,0,0)" stroke-width="50" stroke-linejoin="round" d="M 1715,5798 L 3046,3938"/>
      </g>
     </g>
     <g class="com.sun.star.drawing.LineShape">
      <g id="id41">
       <path fill="none" stroke="rgb(0,0,0)" stroke-width="50" stroke-linejoin="round" d="M 4883,5798 L 3552,3938"/>
      </g>
     </g>
     <g class="com.sun.star.drawing.LineShape">
      <g id="id42">
       <path fill="none" stroke="rgb(0,0,0)" stroke-width="50" stroke-linejoin="round" d="M 6503,8600 L 5172,6740"/>
      </g>
     </g>
     <g class="com.sun.star.drawing.LineShape">
      <g id="id43">
       <path fill="none" stroke="rgb(0,0,0)" stroke-width="50" stroke-linejoin="round" d="M 3282,8603 L 4613,6743"/>
      </g>
     </g>
     <g class="com.sun.star.drawing.ClosedBezierShape">
      <g id="id44">
       <path fill="rgb(0,0,0)" stroke="none" d="M 1618,7211 C 1618,7230 1619,7249 1622,7269 1626,7288 1633,7304 1645,7317 1657,7331 1676,7337 1702,7338 1727,7337 1746,7331 1758,7317 1770,7304 1777,7288 1781,7269 1784,7249 1785,7230 1785,7211 1785,7192 1784,7173 1781,7154 1777,7134 1770,7118 1758,7105 1746,7091 1727,7085 1702,7084 1676,7085 1657,7091 1645,7105 1633,7118 1626,7134 1622,7154 1619,7173 1618,7192 1618,7211 Z M 1650,7211 C 1650,7198 1650,7184 1652,7168 1654,7153 1658,7139 1665,7128 1673,7116 1685,7110 1702,7110 1718,7110 1730,7116 1738,7128 1745,7139 1749,7153 1751,7168 1753,7184 1753,7198 1753,7211 1753,7224 1753,7238 1751,7254 1749,7269 1745,7283 1738,7294 1730,7306 1718,7312 1702,7312 1685,7312 1673,7306 1665,7294 1658,7283 1654,7269 1652,7254 1650,7238 1650,7224 1650,7211 Z"/>
      </g>
     </g>
     <g class="Group">
      <g class="com.sun.star.drawing.ClosedBezierShape">
       <g id="id45">
        <path fill="rgb(0,0,0)" stroke="none" d="M 3232,9884 L 3209,9884 C 3205,9903 3197,9915 3183,9922 3170,9928 3155,9931 3137,9931 L 3137,9955 3202,9955 3202,10134 3232,10134 3232,9884 Z"/>
       </g>
      </g>
      <g class="com.sun.star.drawing.ClosedBezierShape">
       <g id="id46">
        <path fill="rgb(0,0,0)" stroke="none" d="M 3316,10011 C 3316,10030 3317,10049 3320,10069 3324,10088 3331,10104 3343,10117 3355,10131 3374,10137 3400,10138 3425,10137 3444,10131 3456,10117 3468,10104 3475,10088 3479,10069 3482,10049 3483,10030 3483,10011 3483,9992 3482,9973 3479,9954 3475,9934 3468,9918 3456,9905 3444,9891 3425,9885 3400,9884 3374,9885 3355,9891 3343,9905 3331,9918 3324,9934 3320,9954 3317,9973 3316,9992 3316,10011 Z M 3348,10011 C 3348,9998 3348,9984 3350,9968 3352,9953 3356,9939 3363,9928 3371,9916 3383,9910 3400,9910 3416,9910 3428,9916 3436,9928 3443,9939 3447,9953 3449,9968 3451,9984 3451,9998 3451,10011 3451,10024 3451,10038 3449,10054 3447,10069 3443,10083 3436,10094 3428,10106 3416,10112 3400,10112 3383,10112 3371,10106 3363,10094 3356,10083 3352,10069 3350,10054 3348,10038 3348,10024 3348,10011 Z"/>
       </g>
      </g>
     </g>
     <g class="Group">
      <g class="com.sun.star.drawing.ClosedBezierShape">
       <g id="id47">
        <path fill="rgb(0,0,0)" stroke="none" d="M 6432,9884 L 6409,9884 C 6405,9903 6397,9915 6383,9922 6370,9928 6355,9931 6337,9931 L 6337,9955 6402,9955 6402,10134 6432,10134 6432,9884 Z"/>
       </g>
      </g>
      <g class="com.sun.star.drawing.ClosedBezierShape">
       <g id="id48">
        <path fill="rgb(0,0,0)" stroke="none" d="M 6627,9884 L 6604,9884 C 6600,9903 6592,9915 6578,9922 6565,9928 6550,9931 6532,9931 L 6532,9955 6597,9955 6597,10134 6627,10134 6627,9884 Z"/>
       </g>
      </g>
     </g>
    </g>
   </g>
  </g>
 </g>
</svg>
